<svg xmlns="http://www.w3.org/2000/svg" width="200" height="200" viewBox="0 0 200 200" version="1.1"><path d="M 57.500 33.047 C 56.106 33.678, 56.712 33.768, 59.500 33.344 C 61.700 33.009, 63.688 32.569, 63.917 32.367 C 64.776 31.610, 59.420 32.177, 57.500 33.047 M 75.750 32.662 C 76.438 32.940, 77.563 32.940, 78.250 32.662 C 78.938 32.385, 78.375 32.158, 77 32.158 C 75.625 32.158, 75.063 32.385, 75.750 32.662 M 120.500 33.047 C 119.106 33.678, 119.712 33.768, 122.500 33.344 C 124.700 33.009, 126.688 32.569, 126.917 32.367 C 127.776 31.610, 122.420 32.177, 120.500 33.047 M 138.083 32.356 C 138.313 32.552, 140.075 33.002, 142 33.355 C 144.462 33.807, 145.055 33.706, 144 33.014 C 142.644 32.125, 137.092 31.508, 138.083 32.356 M 87 36 C 87.825 36.533, 88.950 36.969, 89.500 36.969 C 90.050 36.969, 89.825 36.533, 89 36 C 88.175 35.467, 87.050 35.031, 86.500 35.031 C 85.950 35.031, 86.175 35.467, 87 36 M 113 36 C 112.175 36.533, 111.950 36.969, 112.500 36.969 C 113.050 36.969, 114.175 36.533, 115 36 C 115.825 35.467, 116.050 35.031, 115.500 35.031 C 114.950 35.031, 113.825 35.467, 113 36 M 92 38.430 C 92 38.705, 92.900 39.411, 94 40 C 95.100 40.589, 96 40.845, 96 40.570 C 96 40.295, 95.100 39.589, 94 39 C 92.900 38.411, 92 38.155, 92 38.430 M 106.872 39.750 C 105.603 41.369, 105.650 41.390, 107.500 40.033 C 108.600 39.226, 109.688 38.439, 109.917 38.283 C 110.146 38.127, 109.863 38, 109.289 38 C 108.715 38, 107.627 38.788, 106.872 39.750 M 37.946 44.750 L 34.500 48.500 38.250 45.054 C 40.313 43.158, 42 41.471, 42 41.304 C 42 40.540, 41.154 41.260, 37.946 44.750 M 163 44.500 C 164.866 46.425, 166.617 48, 166.892 48 C 167.167 48, 165.866 46.425, 164 44.500 C 162.134 42.575, 160.383 41, 160.108 41 C 159.833 41, 161.134 42.575, 163 44.500 M 29.954 55.086 C 29.340 56.233, 29.026 57.360, 29.257 57.590 C 29.487 57.820, 30.189 56.882, 30.816 55.504 C 32.194 52.480, 31.523 52.154, 29.954 55.086 M 171.080 55 C 172.538 58.061, 173 58.628, 173 57.358 C 173 56.821, 172.300 55.509, 171.445 54.441 C 169.978 52.611, 169.958 52.643, 171.080 55 M 174.610 64.500 C 175.433 68.177, 176.005 68.975, 175.985 66.417 C 175.976 65.362, 175.513 63.825, 174.954 63 C 174.213 61.905, 174.120 62.309, 174.610 64.500 M 26.079 65.583 C 26.127 66.748, 26.364 66.985, 26.683 66.188 C 26.972 65.466, 26.936 64.603, 26.604 64.271 C 26.272 63.939, 26.036 64.529, 26.079 65.583 M 175.116 84.168 C 175.052 85.086, 174.741 86.661, 174.424 87.668 C 173.879 89.404, 173.909 89.407, 174.992 87.719 C 175.620 86.739, 175.931 85.164, 175.683 84.219 C 175.277 82.670, 175.221 82.665, 175.116 84.168 M 26.079 85.583 C 26.127 86.748, 26.364 86.985, 26.683 86.188 C 26.972 85.466, 26.936 84.603, 26.604 84.271 C 26.272 83.939, 26.036 84.529, 26.079 85.583 M 171.144 95.750 C 170.053 98.300, 170.078 98.359, 171.484 96.559 C 172.318 95.491, 173 94.254, 173 93.809 C 173 92.289, 172.322 92.999, 171.144 95.750 M 100.014 168.414 C 100.662 169.062, 101.338 169.062, 101.986 168.414 C 102.633 167.767, 102.295 167.429, 101 167.429 C 99.705 167.429, 99.367 167.767, 100.014 168.414" stroke="none" fill="#fca6a6" fill-rule="evenodd"/><path d="M 58.760 33.558 C 50.650 35.524, 45.445 38.434, 38.934 44.645 C 24.294 58.609, 21.550 81.654, 32.469 98.950 C 35.160 103.214, 99.467 168, 101.008 168 C 101.473 168, 116.625 153.250, 134.677 135.222 C 158.437 111.495, 168.292 100.974, 170.367 97.122 C 179.849 79.519, 177.315 59.672, 163.754 45.334 C 148.790 29.511, 123.401 27.888, 105.430 41.605 C 100.836 45.112, 100.765 45.129, 98.644 43.259 C 87.801 33.700, 73.013 30.103, 58.760 33.558" stroke="none" fill="#fc0505" fill-rule="evenodd"/></svg>