<svg xmlns="http://www.w3.org/2000/svg" width="512" height="512" viewBox="0 0 512 512" version="1.1"><path d="" stroke="none" fill="#080404" fill-rule="evenodd"/><path d="M 170.500 1.982 C 88.454 15.247, 25.440 72.768, 5.608 152.500 C -1.806 182.304, -1.834 219.056, 5.535 248.307 C 31.965 353.230, 135.053 418.120, 240.815 396.407 C 262.835 391.886, 288.699 381.635, 305.760 370.667 C 309.753 368.100, 313.360 366, 313.776 366 C 314.191 366, 315.292 368.144, 316.223 370.764 C 317.153 373.385, 319.260 377.547, 320.905 380.014 C 322.549 382.481, 351.031 411.564, 384.197 444.642 C 447.166 507.443, 447.576 507.806, 459.236 510.968 C 467.230 513.136, 479.367 511.953, 487.319 508.231 C 509.506 497.849, 518.265 472.017, 507.234 449.500 C 505.333 445.620, 491.315 430.995, 444.642 384.197 C 411.564 351.031, 382.481 322.549, 380.014 320.905 C 377.547 319.260, 373.385 317.153, 370.764 316.223 C 368.144 315.292, 366 314.191, 366 313.776 C 366 313.360, 368.012 309.881, 370.472 306.044 C 411.442 242.127, 410.343 154.214, 367.772 90 C 339.734 47.708, 297.819 18.116, 248 5.441 C 226.366 -0.063, 192.498 -1.574, 170.500 1.982 M 186.050 52.086 C 151.144 55.448, 119.761 70.239, 95 95 C 54.924 135.076, 41.320 193.156, 59.162 248 C 71.092 284.672, 101.574 318.885, 136.755 335.092 C 159.104 345.387, 180.328 349.599, 205.639 348.763 C 243.751 347.503, 277.410 333.096, 304.512 306.444 C 333.536 277.901, 349.039 240.900, 348.982 200.308 C 348.923 158.348, 333.111 121.388, 302.859 92.500 C 278.398 69.141, 247.710 55.245, 213.500 52.034 C 201.336 50.892, 198.389 50.898, 186.050 52.086" stroke="none" fill="#040404" fill-rule="evenodd"/></svg>